<?xml version="1.0" encoding="UTF-8"?>
<svg width="600" height="400" viewBox="0 0 600 400" fill="none" xmlns="http://www.w3.org/2000/svg">
  <!-- Background Elements -->
  <rect width="600" height="400" fill="#F3F4F6"/>
  <circle cx="300" cy="200" r="180" fill="#E5E7EB" opacity="0.5"/>
  
  <!-- Main Contact Icon -->
  <g transform="translate(200, 100)">
    <!-- Envelope -->
    <rect x="0" y="0" width="200" height="120" rx="12" fill="#3B82F6"/>
    <path d="M20 40L100 100L180 40" stroke="white" stroke-width="4" stroke-linecap="round"/>
    
    <!-- Decorative Elements -->
    <circle cx="100" cy="60" r="20" fill="white" opacity="0.2"/>
    <circle cx="100" cy="60" r="10" fill="white"/>
    
    <!-- Message Lines -->
    <rect x="40" y="80" width="120" height="4" rx="2" fill="white"/>
    <rect x="40" y="90" width="80" height="4" rx="2" fill="white"/>
  </g>
  
  <!-- Decorative Circles -->
  <circle cx="150" cy="150" r="40" fill="#3B82F6" opacity="0.1"/>
  <circle cx="450" cy="250" r="60" fill="#3B82F6" opacity="0.1"/>
  <circle cx="300" cy="350" r="30" fill="#3B82F6" opacity="0.1"/>
  
  <!-- Small Icons -->
  <g transform="translate(50, 50)">
    <circle cx="0" cy="0" r="15" fill="#3B82F6"/>
    <path d="M-5 -5L5 5M-5 5L5 -5" stroke="white" stroke-width="2"/>
  </g>
  
  <g transform="translate(550, 350)">
    <circle cx="0" cy="0" r="15" fill="#3B82F6"/>
    <path d="M-5 -5L5 5M-5 5L5 -5" stroke="white" stroke-width="2"/>
  </g>
  
  <!-- Decorative Lines -->
  <path d="M100 100L500 300" stroke="#3B82F6" stroke-width="2" opacity="0.1"/>
  <path d="M500 100L100 300" stroke="#3B82F6" stroke-width="2" opacity="0.1"/>
</svg> 